PathFileType	4	(X/Y/Z)	2014001\dynamic\2014001_C1_02.trc
DataRate	CameraRate	NumFrames	NumMarkers	Units	OrigDataRate	OrigDataStartFrame	OrigNumFrames
100.000000	100.000000	4	52	mm	100.000000	159	426
Frame#	Time	L_IAS			L_IPS			R_IPS			R_IAS			L_FTC			L_FLE			L_FME			L_FAX			L_TTC			L_FAL			L_TAM			L_FCC			L_FM1			L_FM2			L_FM5			R_FTC			R_FLE			R_FME			R_FAX			R_TTC			R_FAL			R_TAM			R_FCC			R_FM1			R_FM2			R_FM5			CV7			TV10			SXS			SJN			L_SIA			L_SRS			L_SAA			L_SAE			L_HLE			L_HME			L_UOA			L_RSP			L_UHE			L_HM2			L_HM5			R_SIA			R_SRS			R_SAA			R_SAE			R_HLE			R_HME			R_UOA			R_RSP			R_UHE			R_HM2			R_HM5			
		X1	Y1	Z1	X2	Y2	Z2	X3	Y3	Z3	X4	Y4	Z4	X5	Y5	Z5	X6	Y6	Z6	X7	Y7	Z7	X8	Y8	Z8	X9	Y9	Z9	X10	Y10	Z10	X11	Y11	Z11	X12	Y12	Z12	X13	Y13	Z13	X14	Y14	Z14	X15	Y15	Z15	X16	Y16	Z16	X17	Y17	Z17	X18	Y18	Z18	X19	Y19	Z19	X20	Y20	Z20	X21	Y21	Z21	X22	Y22	Z22	X23	Y23	Z23	X24	Y24	Z24	X25	Y25	Z25	X26	Y26	Z26	X27	Y27	Z27	X28	Y28	Z28	X29	Y29	Z29	X30	Y30	Z30	X31	Y31	Z31	X32	Y32	Z32	X33	Y33	Z33	X34	Y34	Z34	X35	Y35	Z35	X36	Y36	Z36	X37	Y37	Z37	X38	Y38	Z38	X39	Y39	Z39	X40	Y40	Z40	X41	Y41	Z41	X42	Y42	Z42	X43	Y43	Z43	X44	Y44	Z44	X45	Y45	Z45	X46	Y46	Z46	X47	Y47	Z47	X48	Y48	Z48	X49	Y49	Z49	X50	Y50	Z50	X51	Y51	Z51	X52	Y52	Z52	

160	1.59	368.2294311523439	863.0988769531255	536.2725219726565	276.758026123047	909.4436645507817	368.2516174316407	186.2126159667969	907.472534179688	373.1075439453126	128.9788970947266	879.1478881835942	557.914489746094	418.465759277344	784.7939453125005	439.9194030761721	386.2710571289065	442.9185180664065	359.1771545410157	274.3768920898439	422.2475585937502	389.0668029785159	389.5512390136721	392.3908996582034	319.1747131347657	345.8881225585939	348.997772216797	368.0422668457032	348.858123779297	106.185173034668	165.8451232910157	262.7727966308595	107.1247100830079	191.1330718994141	301.8359375000001	83.90975189208987	111.9773483276368	279.1312561035157	26.92572402954103	281.4065551757814	341.6268920898439	34.89786911010744	290.0072631835939	383.4514160156251	28.93821907043458	234.8259277343751	61.07177352905276	784.3579711914067	476.9972229003909	91.64991760253909	443.9602050781252	572.4151000976565	209.6968383789064	435.8751220703127	581.187194824219	87.78604888916018	376.0697326660157	570.4939575195315	142.0240325927735	384.2454223632815	631.7067871093752	133.2601318359376	64.24241638183597	613.314147949219	215.4935913085939	90.2890548706055	646.7403564453127	193.1026763916017	22.04768371582032	578.1300048828127	204.6170196533204	43.5789260864258	762.5269775390627	144.2562866210938	48.11055755615237	762.0225219726565	104.2363204956055	28.13542556762697	713.3796997070315	221.5493927001954	1373.161743164063	406.2773132324221	231.4212951660157	1140.8681640625	340.6684570312501	243.2888336181642	1144.306884765625	570.7135009765627	231.6038970947267	1306.129028320313	530.7368774414065	327.466766357422	1185.348388671875	333.6430664062501	314.8504333496095	1315.478393554688	357.4499511718751	424.9793395996096	1314.569091796875	434.0815124511721	409.0046386718752	1323.542846679688	474.2689514160159	489.223815917969	1039.772583007813	433.7351684570315	416.625183105469	1009.677978515625	399.6343994140627	466.8958129882815	1007.128967285157	397.8390808105471	430.3232421875002	811.500854492188	525.8860473632815	503.3308105468752	805.516235351563	488.6562194824221	432.4525146484377	731.351989746094	559.2327880859377	503.3196105957034	726.9559326171877	485.2693176269534	114.805404663086	1178.123901367188	341.3087158203126	133.7256317138672	1302.6005859375	367.4098510742189	34.77672195434572	1293.7080078125	452.4197082519534	50.30020141601565	1296.129150390625	500.3482360839846	-13.68766117095948	992.5248413085942	456.4814147949221	61.50991821289065	978.6736450195317	426.838317871094	15.95497989654542	969.1847534179692	425.7942199707034	31.47923851013185	793.204467773438	565.3543090820315	-32.52495574951173	784.021850585938	515.473083496094	20.53912734985352	705.4775390625002	601.5015258789065	-28.20620155334474	705.1676025390627	510.954284667969	
161	1.6	365.9757080078126	864.2468261718755	541.8030395507815	274.3968811035157	910.590942382813	373.7882385253907	183.8605651855469	908.5706176757817	378.9290771484376	126.7275924682618	879.873413085938	563.6280517578127	416.120788574219	785.9642944335942	445.5685729980471	385.863952636719	443.9278259277346	365.717742919922	273.8704833984376	422.6580200195315	395.8799743652346	389.1000671386721	393.7582702636721	325.1179199218751	345.8943176269532	349.624237060547	373.890350341797	349.0119018554689	109.5264282226563	168.4187011718751	263.0422973632814	109.7031631469727	193.9576873779298	301.6863098144532	88.13075256347659	114.3025054931641	279.0991821289064	26.78492546081544	281.854217529297	341.693572998047	34.88318634033205	290.4667358398439	383.2523803710939	30.00513839721681	235.6986236572267	58.95828247070315	785.2623901367192	482.3824157714846	90.22766113281253	444.1123046875002	575.0172119140627	208.3394927978517	436.2473144531252	583.903503417969	86.572135925293	376.1450805664064	572.545837402344	140.604476928711	384.0872802734377	633.9671630859377	133.128890991211	64.15779876708987	613.4194335937502	215.171600341797	90.33367156982425	646.9884033203127	192.940399169922	22.04766273498536	578.0706787109377	205.0134735107423	43.3929786682129	762.3906860351565	144.5919189453126	47.70593261718751	762.3457031250002	104.1584396362305	28.10473442077638	713.510681152344	218.8533782958986	1374.14892578125	411.4079589843752	228.7498168945314	1141.7216796875	346.0974731445314	240.4468841552736	1145.476684570313	576.1231079101565	228.7367248535157	1307.231689453125	535.9363403320315	324.9022521972657	1186.200073242188	339.1456909179689	312.2624511718751	1316.396606445313	362.7637023925782	422.2507019042971	1315.607055664063	439.6453552246096	406.1612548828127	1324.633544921875	479.7796325683596	486.9862365722659	1040.968139648438	439.6982727050784	414.7210083007815	1010.812438964844	405.0069885253909	465.0309753417971	1008.133178710938	403.7885437011721	427.209167480469	813.357055664063	532.8003540039065	500.4284362792971	806.9645385742192	496.3296508789065	428.7003173828127	733.421813964844	566.5704345703127	500.3262939453127	728.3738403320315	493.5177307128909	112.2204208374024	1178.918579101563	346.5277709960939	131.1316223144532	1303.465454101563	372.4608764648439	32.03212356567384	1294.716674804688	457.2580261230471	47.46725845336915	1297.235229492188	505.254333496094	-16.50773620605469	993.4333496093755	462.0862121582034	58.70557403564456	979.4800415039067	432.5427856445315	13.15430355072022	969.9100952148442	431.5264282226565	28.88732719421388	794.900268554688	572.306335449219	-34.99536132812501	785.2014770507817	522.3823852539065	17.98770332336426	707.4426269531252	609.1550292968752	-30.45162773132326	706.330505371094	518.4512329101565	
162	1.61	363.7579650878907	865.3835449218755	547.2606201171877	272.1177368164064	911.7360839843755	379.252655029297	181.5847167968751	909.6689453125005	384.6833496093752	124.5268783569337	880.5661621093755	569.2696533203127	413.7793884277346	787.067993164063	451.2481079101565	385.5242309570315	444.8149414062502	372.590057373047	273.4192504882814	422.9012756347659	403.0628662109377	388.6800537109377	395.0569763183596	331.385467529297	346.0119018554689	350.1324157714845	380.1033325195314	348.9971618652345	112.9148330688477	171.2216491699219	263.1836547851564	112.3366317749024	197.1502685546876	301.3178710937501	92.452995300293	116.9272613525391	279.0098571777345	26.57656860351564	282.3103332519532	341.7113037109376	34.85748672485353	290.932830810547	382.9733886718751	31.15764236450197	236.611297607422	56.89146804809573	786.1793823242192	487.6751098632815	88.76982116699222	444.2436828613284	577.3936157226565	206.9619293212892	436.5657958984377	586.4006958007815	85.3079528808594	376.2103881835939	574.3734130859377	139.1173248291016	383.9199829101564	636.0123291015627	132.9507751464844	64.08067321777347	613.4451293945315	214.7655029296876	90.43437957763675	647.1850585937502	192.7753906250001	22.04528236389161	578.017028808594	205.2460937500001	43.3850555419922	762.2525024414065	144.8016967773438	47.39634704589845	762.6109619140627	104.0335769653321	28.01536369323732	713.5955810546877	216.1252899169923	1375.118774414063	416.4836730957034	226.0808563232423	1142.561767578125	351.4718017578126	237.618377685547	1146.63330078125	581.4775390625002	225.8700561523439	1308.3212890625	541.0767211914065	322.2984619140626	1187.04541015625	344.5527648925782	309.626434326172	1317.308715820313	367.9857482910157	419.4956359863284	1316.632934570313	445.0773010253909	403.307067871094	1325.7109375	485.1676330566409	484.7249755859377	1042.153930664063	445.6037292480471	412.778503417969	1011.919616699219	410.3276672363284	463.134948730469	1009.110717773438	409.7032470703127	424.1525573730471	815.2101440429692	539.6951904296877	497.580505371094	808.439331054688	504.0073547363284	425.0398864746096	735.505310058594	573.9429321289065	497.4396667480471	729.827087402344	501.8037414550784	109.6232986450196	1179.679809570313	351.7100219726564	128.5074768066407	1304.308959960938	377.4685058593751	29.27562713623048	1295.689575195313	462.0585021972659	44.61365890502931	1298.308837890625	510.1258850097659	-19.34400749206544	994.3212280273442	467.6397094726565	55.88510513305667	980.259155273438	438.2039489746096	10.33752250671387	970.6057739257817	437.2156677246096	26.28239822387697	796.5991210937505	579.2327270507815	-37.48388290405275	786.3776855468755	529.2720336914065	15.42102241516114	709.4268798828127	616.8121337890627	-32.71029281616212	707.4927368164065	525.951110839844	
163	1.62	361.5730895996095	866.503784179688	552.6330566406252	269.9282836914064	912.8724975585942	384.6307067871096	179.3908386230469	910.7594604492192	390.3417053222659	122.3678665161133	881.2301635742192	574.8084106445315	411.4624938964846	788.1015625000005	456.9274597167971	385.2606201171877	445.5730895996096	379.800262451172	273.0571289062501	422.9715270996096	410.6414489746096	388.3019104003909	396.2824707031252	337.9943847656251	346.2565002441407	350.5169677734376	386.6943969726565	348.7991638183595	116.3458709716797	174.2750244140626	263.1906738281251	115.0259170532227	200.7352447509767	300.7196044921876	96.88649749755865	119.8795623779297	278.8521423339845	26.31427574157716	282.7672729492189	341.660858154297	34.82112121582033	291.4019470214845	382.5943603515626	32.40394210815431	237.5755767822267	54.8723068237305	787.1005249023442	492.8455200195315	87.27972412109378	444.3594970703127	579.5461425781252	205.5577392578126	436.8431091308596	588.7092285156252	84.00028991699222	376.2688903808595	575.9833984375002	137.5617065429688	383.7469787597657	637.8524169921877	132.7252349853516	64.0090255737305	613.3957519531252	214.2753295898439	90.58933258056643	647.3369140625002	192.6058807373048	22.04319953918458	577.9672851562502	205.3162384033204	43.54865646362306	762.1135864257815	144.8897857666016	47.17515945434572	762.8184204101565	103.8638076782227	27.87188148498537	713.6414794921877	213.3684692382814	1376.067749023438	421.5014343261721	223.4255523681642	1143.388427734375	356.7821350097657	234.8133392333986	1147.77294921875	586.771179199219	223.0095367431642	1309.3955078125	546.1573486328127	319.6717224121095	1187.891723632813	349.8627929687501	306.947967529297	1318.217163085938	373.1141052246095	416.7188720703127	1317.656982421875	450.3739318847659	400.4468078613284	1326.784301757813	490.4295349121096	482.4252929687502	1043.335327148438	451.4329833984377	410.7649230957034	1013.004760742188	415.615417480469	461.1750793457034	1010.06787109375	415.5718994140627	421.1648864746096	817.0609741210942	546.570007324219	494.7888183593752	809.9458618164067	511.6531982421877	421.5053710937502	737.6016235351565	581.3464965820315	494.654968261719	731.3201293945315	510.0804138183596	107.0167617797852	1180.407592773438	356.8580627441407	125.8558959960938	1305.126953125	382.4345092773439	26.51274299621583	1296.62841796875	466.8302307128909	41.74840545654298	1299.349853515625	514.9685668945315	-22.18962478637696	995.1918334960942	473.1508789062502	53.05522918701175	981.015014648438	443.8264465332034	7.509945392608646	971.276977539063	442.8684387207034	23.67077445983887	798.2958374023442	586.1251220703127	-39.99135589599611	787.5571899414067	536.1383056640627	12.85000133514405	711.4180908203127	624.448425292969	-34.99222946166994	708.6607666015627	533.442077636719	
